<svg width="129" height="129" viewBox="0 0 129 129" fill="none" xmlns="http://www.w3.org/2000/svg">
<path d="M76.4 64.6L126.4 14.6C129.6 11.4 129.6 5.80001 126.4 2.60001C123.2 -0.599988 117.6 -0.599988 114.4 2.60001L64.4 52.6L14.4 2.60001C11.2 -0.599988 5.6 -0.599988 2.4 2.60001C-0.8 5.80001 -0.8 11.4 2.4 14.6L52.4 64.6L2.4 114.2C-0.8 117.4 -0.8 123 2.4 126.2C4 127.8 6.4 128.6 8.4 128.6C10.4 128.6 12.8 127.8 14.4 126.2L64.4 76.2L114.4 126.2C116 127.8 118.4 128.6 120.4 128.6C122.4 128.6 124.8 127.8 126.4 126.2C129.6 123 129.6 117.4 126.4 114.2L76.4 64.6Z" fill="#FF5F7F"/>
</svg>
