<svg width="341" height="341" viewBox="0 0 341 341" fill="none" xmlns="http://www.w3.org/2000/svg">
<g clip-path="url(#clip0)">
<path d="M170.4 0C76.4 0 0 76.4 0 170.4C0 264.4 76.4 340.8 170.4 340.8C264.4 340.8 340.8 264.4 340.8 170.4C340.8 76.4 264.4 0 170.4 0ZM170.4 323.6C86 323.6 17.2 254.8 17.2 170.4C17.2 86 86 17.2 170.4 17.2C254.8 17.2 323.6 86 323.6 170.4C323.6 254.8 254.8 323.6 170.4 323.6Z" fill="white"/>
<path d="M182.4 169.6L232.4 119.6C235.6 116.4 235.6 110.8 232.4 107.6C229.2 104.4 223.6 104.4 220.4 107.6L170.4 157.6L120.4 107.6C117.2 104.4 111.6 104.4 108.4 107.6C105.2 110.8 105.2 116.4 108.4 119.6L158.4 169.6L108.4 219.2C105.2 222.4 105.2 228 108.4 231.2C110 232.8 112.4 233.6 114.4 233.6C116.4 233.6 118.8 232.8 120.4 231.2L170.4 181.2L220.4 231.2C222 232.8 224.4 233.6 226.4 233.6C228.4 233.6 230.8 232.8 232.4 231.2C235.6 228 235.6 222.4 232.4 219.2L182.4 169.6Z" fill="white"/>
</g>
<defs>
<clipPath id="clip0">
<rect width="340.8" height="340.8" fill="white"/>
</clipPath>
</defs>
</svg>
