<?xml version="1.0" encoding="iso-8859-1"?>
<!-- Generator: Adobe Illustrator 19.0.0, SVG Export Plug-In . SVG Version: 6.00 Build 0)  -->
<svg version="1.1" id="Capa_1" xmlns="http://www.w3.org/2000/svg" xmlns:xlink="http://www.w3.org/1999/xlink" x="0px" y="0px"
	 viewBox="0 0 512 512" style="enable-background:new 0 0 512 512;" xml:space="preserve">
<path style="fill:#FFB037;" d="M50,493.5c-27.57,0-50-22.43-50-50v-120c0-27.57,22.43-50,50-50s50,22.43,50,50v120
	C100,471.07,77.57,493.5,50,493.5z"/>
<g>
	<path style="fill:#FF6E37;" d="M324.667,493.5c-27.57,0-50-22.43-50-50v-60c0-27.57,22.43-50,50-50s50,22.43,50,50v60
		C374.667,471.07,352.237,493.5,324.667,493.5z"/>
	<path style="fill:#FF6E37;" d="M324.667,303.5c-27.57,0-50-22.43-50-50v-120c0-27.57,22.43-50,50-50s50,22.43,50,50v120
		C374.667,281.07,352.237,303.5,324.667,303.5z"/>
</g>
<path style="fill:#FF9037;" d="M462,493.5c-27.57,0-50-22.43-50-50v-155c0-27.57,22.43-50,50-50s50,22.43,50,50v155
	C512,471.07,489.57,493.5,462,493.5z"/>
<path style="fill:#FF4B37;" d="M187.333,493.5c-27.57,0-50-22.43-50-50v-375c0-27.57,22.43-50,50-50s50,22.43,50,50v375
	C237.333,471.07,214.904,493.5,187.333,493.5z"/>
<g>
</g>
<g>
</g>
<g>
</g>
<g>
</g>
<g>
</g>
<g>
</g>
<g>
</g>
<g>
</g>
<g>
</g>
<g>
</g>
<g>
</g>
<g>
</g>
<g>
</g>
<g>
</g>
<g>
</g>
</svg>
